<?xml version="1.0" encoding="utf-8"?>
<!-- Generator: Adobe Illustrator 22.1.0, SVG Export Plug-In . SVG Version: 6.00 Build 0)  -->
<svg version="1.1" id="Layer_4_1_" xmlns="http://www.w3.org/2000/svg" xmlns:xlink="http://www.w3.org/1999/xlink" x="0px" y="0px"
	 viewBox="0 0 37 37" style="enable-background:new 0 0 37 37;" xml:space="preserve">
<style type="text/css">
	.st0{fill:#241C1C;}
</style>
<circle class="st0" cx="18.5" cy="18.5" r="2.1"/>
<rect x="17.8" y="0.3" class="st0" width="1.4" height="10.2"/>
<rect x="17.8" y="26.5" transform="matrix(-1 -9.047486e-11 9.047486e-11 -1 36.9995 63.131)" class="st0" width="1.4" height="10.2"/>
<path class="st0" d="M5.7,22.6H4c1.4,5,5.3,8.9,10.3,10.3v-1.6C10.3,30,7,26.7,5.7,22.6z"/>
<path class="st0" d="M4,14.4h1.6C7,10.3,10.3,7,14.4,5.7V4C9.4,5.5,5.5,9.4,4,14.4z"/>
<rect x="4.7" y="13.4" transform="matrix(4.335294e-11 -1 1 4.335294e-11 -13.0655 23.9345)" class="st0" width="1.4" height="10.2"/>
<path class="st0" d="M31.3,14.4H33c-1.4-5-5.3-8.9-10.3-10.3v1.6C26.7,7,30,10.3,31.3,14.4z"/>
<path class="st0" d="M31.3,22.6c-1.3,4.1-4.6,7.3-8.7,8.7V33c5-1.4,8.9-5.3,10.3-10.3H31.3z"/>
<rect x="30.8" y="13.4" transform="matrix(-1.357121e-10 1 -1 -1.357121e-10 50.066 -13.065)" class="st0" width="1.4" height="10.2"/>
</svg>
